<svg version="1.1" xmlns="http://www.w3.org/2000/svg" xmlns:xlink="http://www.w3.org/1999/xlink" width="341.27985" height="341.27096" viewBox="0,0,341.27985,341.27096"><defs><linearGradient x1="240" y1="20.11296" x2="240" y2="339.88704" gradientUnits="userSpaceOnUse" id="color-1"><stop offset="0" stop-color="#000000"/><stop offset="1" stop-color="#009fff"/></linearGradient><linearGradient x1="260.16667" y1="100.61299" x2="260.16667" y2="235.61299" gradientUnits="userSpaceOnUse" id="color-2"><stop offset="0" stop-color="#000000"/><stop offset="1" stop-color="#009fff"/></linearGradient><linearGradient x1="191.06095" y1="159.61299" x2="191.06095" y2="263.61299" gradientUnits="userSpaceOnUse" id="color-3"><stop offset="0" stop-color="#000000"/><stop offset="1" stop-color="#009fff"/></linearGradient><linearGradient x1="240" y1="20.11296" x2="240" y2="339.88704" gradientUnits="userSpaceOnUse" id="color-4"><stop offset="0" stop-color="#009fff" stop-opacity="0"/><stop offset="1" stop-color="#009fff"/></linearGradient></defs><g transform="translate(-69.34064,-9.36325)"><g data-paper-data="{&quot;isPaintingLayer&quot;:true}" fill-rule="nonzero" stroke-linejoin="miter" stroke-miterlimit="10" stroke-dasharray="" stroke-dashoffset="0" style="mix-blend-mode: normal"><g stroke="none" stroke-width="1" stroke-linecap="butt"><path d="M134.19484,20.23906c0.93844,-0.00382 1.87688,-0.00765 2.84376,-0.01159c3.12259,-0.01026 6.24499,-0.00634 9.36759,-0.00236c2.24784,-0.00435 4.49568,-0.00953 6.74352,-0.01549c6.091,-0.01337 12.18195,-0.01397 18.27297,-0.01144c5.09177,0.00107 10.18352,-0.00381 15.27527,-0.0086c12.70317,-0.01172 25.40628,-0.01088 38.10945,-0.00445c11.01031,0.00517 22.02054,-0.00608 33.03084,-0.0251c11.3276,-0.01941 22.65514,-0.02734 33.98276,-0.02388c6.35066,0.00181 12.70123,-0.0008 19.05187,-0.01471c5.97465,-0.01261 11.94911,-0.01061 17.92375,0.00241c2.18644,0.00236 4.37288,-0.00034 6.5593,-0.00862c18.93601,-0.0665 34.51095,1.48352 48.84787,15.05641c3.13506,3.23269 5.8367,6.53225 8.25781,10.32813c0.56655,0.88365 0.56654,0.88365 1.14453,1.78516c7.22648,12.74784 6.2879,28.10665 6.24365,42.23633c0.00407,2.19607 0.00942,4.39214 0.01593,6.58821c0.0136,5.92766 0.0084,11.85517 -0.00114,17.78283c-0.00763,6.22476 -0.00054,12.4495 0.00416,18.67426c0.00579,11.11824 -0.00349,22.23641 -0.01878,33.35465c-0.0134,10.05373 -0.01107,20.10737 0.00276,30.1611c0.01605,11.71242 0.022,23.42478 0.01316,35.13721c-0.00466,6.18632 -0.00535,12.37257 0.00461,18.55888c0.00871,5.81796 0.00257,11.63572 -0.01468,17.45367c-0.00394,2.12593 -0.00288,4.25188 0.00378,6.3778c0.05694,20.03872 -1.62646,36.4302 -16.04252,51.66727c-15.29195,14.42973 -33.20979,14.5233 -53.03638,14.49731c-2.19563,0.00435 -4.39126,0.00954 -6.58688,0.01549c-5.9402,0.01335 -11.88034,0.01398 -17.82054,0.01144c-4.9699,-0.00108 -9.93978,0.00382 -14.90967,0.00861c-12.40076,0.01171 -24.80148,0.01088 -37.20224,0.00444c-10.74048,-0.00516 -21.48087,0.00608 -32.22133,0.0251c-11.05873,0.01943 -22.1174,0.02733 -33.17615,0.02387c-6.19643,-0.00181 -12.39278,0.00078 -18.5892,0.01472c-5.83022,0.01263 -11.66026,0.01059 -17.49048,-0.00241c-2.13077,-0.00236 -4.26155,0.00033 -6.3923,0.00862c-19.25831,0.06952 -35.99109,-1.07804 -50.60999,-15.00954c-11.15946,-11.42248 -15.47652,-23.9395 -15.46076,-39.74746c-0.00297,-0.93588 -0.00594,-1.87176 -0.00901,-2.83599c-0.00866,-3.13186 -0.01019,-6.26368 -0.01168,-9.39555c-0.00463,-2.24739 -0.00965,-4.49479 -0.01505,-6.74219c-0.01311,-6.10356 -0.01957,-12.20711 -0.02401,-18.31069c-0.00293,-3.81566 -0.00704,-7.63133 -0.0115,-11.44699c-0.01211,-10.57734 -0.02249,-21.15467 -0.02587,-31.73201c-0.00022,-0.67632 -0.00044,-1.35264 -0.00067,-2.04945c-0.00022,-0.67789 -0.00044,-1.35577 -0.00066,-2.05419c-0.00044,-1.37351 -0.00089,-2.74703 -0.00134,-4.12054c-0.00022,-0.6813 -0.00044,-1.36261 -0.00067,-2.06455c-0.00395,-11.02991 -0.02139,-22.05974 -0.04469,-33.08961c-0.02376,-11.34106 -0.03592,-22.68207 -0.03734,-34.02316c-0.00105,-6.36077 -0.00692,-12.72144 -0.02482,-19.08219c-0.01651,-5.9869 -0.01861,-11.97365 -0.00986,-17.96057c0.00077,-2.19127 -0.00355,-4.38256 -0.01346,-6.57381c-0.07789,-18.30208 1.31019,-34.2381 14.39451,-48.30231c11.40688,-10.64041 24.32139,-15.17203 39.70979,-15.10445z" fill="url(#color-1)"/><path d="M301.68608,93.18762c2.68142,2.17363 5.28102,4.41376 7.86719,6.69922c0.63164,0.50016 1.26328,1.00032 1.91406,1.51563c18.51429,14.70998 31.15821,40.23642 34.14306,63.41406c0.40558,3.6851 0.70472,7.3709 0.94287,11.07031c0.07218,1.05832 0.14438,2.11664 0.21875,3.20703c0.28763,8.76069 -1.33369,17.27806 -3.21875,25.79297c-0.15566,0.70318 -0.31131,1.40637 -0.47168,2.13086c-3.90326,16.78169 -12.13981,31.04045 -23.52832,43.86914c-0.95907,1.24717 -0.95907,1.24717 -1.9375,2.51953c-16.0419,19.29282 -42.46652,30.45151 -66.92187,33.23828c-5.09115,0.3926 -10.03931,0.51449 -15.14062,0.24218c-0.63857,-0.03046 -1.27714,-0.06091 -1.93506,-0.09228c-23.56033,-1.30183 -45.32687,-10.42211 -63.06494,-25.90772c-0.72058,-0.5659 -1.44117,-1.13179 -2.18359,-1.71484c-12.24634,-9.97608 -20.63587,-23.94411 -26.81641,-38.28516c-0.49242,-1.13824 -0.98484,-2.27648 -1.49219,-3.44922c-9.69583,-24.69855 -8.82822,-52.34951 0.74219,-76.92578c0.87977,-1.89259 1.79966,-3.76684 2.75,-5.625c0.29326,-0.5941 0.58652,-1.18819 0.88867,-1.80029c12.3079,-24.67151 33.30003,-43.44966 59.11133,-53.19971c4.92831,-1.64032 9.9375,-2.84336 15,-4c0.82371,-0.22558 1.64742,-0.45117 2.49609,-0.68359c26.41158,-6.63723 59.04331,2.12587 80.63672,17.98438z" fill="#ffffff"/><path d="M270.5876,100.61299c11.83884,3.19969 20.54332,10.52255 29,19c0.81727,0.80567 1.63453,1.61133 2.47656,2.44141c16.65886,17.37445 21.98978,38.44721 21.66796,61.875c-0.47438,19.19489 -8.00873,37.58663 -21.14453,51.68359c-2.34018,-2.25351 -4.31894,-4.43412 -6.25,-7.0625c-3.96072,-4.69594 -8.57905,-5.74283 -14.48291,-6.27221c-1.35178,-0.08433 -2.70385,-0.16407 -4.05615,-0.2395c-0.69457,-0.04234 -1.38913,-0.08468 -2.10474,-0.1283c-1.70183,-0.10316 -3.40398,-0.20087 -5.1062,-0.29748c-0.01459,-1.03407 -0.02917,-2.06814 -0.04419,-3.13354c-0.05812,-3.84882 -0.13535,-7.69706 -0.21826,-11.54541c-0.03319,-1.66332 -0.06124,-3.32674 -0.08398,-4.99023c-0.03366,-2.3959 -0.08599,-4.7908 -0.14185,-7.18628c-0.00639,-0.73978 -0.01278,-1.47955 -0.01936,-2.24174c-0.12565,-4.44588 -0.74725,-7.36424 -3.49235,-10.90279c-2.84477,-1.42238 -5.28873,-1.16424 -8.46924,-1.20532c-0.9953,-0.01485 -0.9953,-0.01485 -2.01071,-0.03c-2.19675,-0.03163 -4.39352,-0.05638 -6.59036,-0.08109c-1.52173,-0.02057 -3.04344,-0.04156 -4.56516,-0.06297c-4.00798,-0.05523 -8.01601,-0.10463 -12.02408,-0.15284c-4.08879,-0.05021 -8.17751,-0.1059 -12.26623,-0.16114c-8.02468,-0.1076 -16.04942,-0.20853 -24.07422,-0.30664c0,-7.26 0,-14.52 0,-22c2.62002,-0.03867 2.62002,-0.03867 5.29297,-0.07812c2.2982,-0.05629 4.59637,-0.11363 6.89453,-0.17187c1.72573,-0.02127 1.72573,-0.02126 3.48633,-0.04297c1.11182,-0.03223 2.22363,-0.06445 3.36914,-0.09766c1.53177,-0.03142 1.53177,-0.03142 3.09448,-0.06347c3.58114,-0.68293 5.2806,-2.01202 7.86255,-4.5459c1.01588,-3.04764 1.19805,-5.34718 1.31641,-8.54297c0.0419,-1.07315 0.08379,-2.14629 0.12695,-3.25195c0.03931,-1.11955 0.07863,-2.23911 0.11914,-3.39258c0.04318,-1.13115 0.08637,-2.2623 0.13086,-3.42773c0.10613,-2.7948 0.20819,-5.58969 0.30664,-8.38477c0.77602,-0.00411 1.55203,-0.00822 2.35156,-0.01245c3.55023,-0.0331 7.09878,-0.10376 10.64844,-0.17505c1.83112,-0.0087 1.83112,-0.0087 3.69922,-0.01757c7.36483,-0.17915 12.65565,-0.83347 18.30078,-5.79493c5.45588,-5.74304 6.36904,-11.37868 7,-19z" fill="url(#color-2)"/><path d="M155.5876,159.61299c8.75884,7.33938 16.94697,15.2918 25.12492,23.26561c2.63271,2.56565 5.27784,5.11484 7.95809,7.63088c19.78658,18.60374 19.78658,18.60374 20.63357,27.06229c-0.02127,2.04904 -0.02127,2.04905 -0.45047,5.67063c-0.42523,5.386 1.63923,9.06885 5.04639,13.1206c4.82422,4.03887 8.42523,5.20629 14.6875,6.25c0,6.93 0,13.86 0,21c-22.85248,-4.57049 -43.70624,-13.82413 -58,-33c-2.92131,-4.55428 -5.50935,-9.19855 -8,-14c-0.49629,-0.93973 -0.99258,-1.87945 -1.50391,-2.84766c-7.796,-15.80145 -9.41694,-37.0055 -5.49609,-54.15234z" fill="url(#color-3)"/></g><g fill="none" stroke="#ffffff" stroke-width="6.5" stroke-linecap="round"><path d="M363.25,265.58682c0,0 -6.01141,-34.16581 -15.92704,-49.92128c-18.67881,-29.67976 -60.07296,-32.07872 -60.07296,-32.07872l83,-156l-160,75c0,0 41.39416,2.39896 60.07296,32.07872c9.91562,15.75547 15.92704,49.92128 15.92704,49.92128"/><path d="M372.25,27.58682l-7,239l36,15z"/><path d="M178.25,20.58682c0,0 41.39415,2.39896 60.07296,32.07872c9.91563,15.75547 -3.07296,37.92128 -3.07296,37.92128"/><path d="M237.25,88.58682c0,0 41.39416,2.39896 60.07296,32.07872c9.91562,15.75547 2.92704,37.92128 2.92704,37.92128"/><path d="M302.25,151.58682c0,0 41.39416,2.39896 60.07296,32.07872c9.91562,15.75547 3.92704,35.92128 3.92704,35.92128"/><path d="M365.25,190.58682c0,0 14.39416,22.39896 33.07296,52.07872"/><path d="M274.25,76.58682c0,0 28.73378,1.66524 41.69968,22.26746c6.88293,10.93667 2.0318,26.32307 2.0318,26.32307"/><path d="M289.25,65.58682c0,0 27.73378,-2.33476 40.69968,18.26746c6.88293,10.93667 -2.9682,24.32307 -2.9682,24.32307"/><path d="M309.25,53.58682c0,0 18.73378,-14.33476 31.69968,6.26746c6.88293,10.93667 1.0318,20.32307 1.0318,20.32307"/><path d="M231.25,22.58682c0,0 27.73378,8.66524 40.69968,29.26746c6.88293,10.93667 2.0318,26.32307 2.0318,26.32307"/><path d="M254.25,21.58682c0,0 27.73378,-2.33476 40.69968,18.26746c6.88293,10.93667 -2.9682,24.32307 -2.9682,24.32307"/><path d="M290.25,25.58682c0,0 18.73378,-14.33476 31.69968,6.26746c6.88293,10.93667 1.0318,20.32307 1.0318,20.32307"/><path d="M322.25,120.58682c0,0 28.73378,1.66524 41.69968,22.26746c6.88293,10.93667 2.0318,26.32307 2.0318,26.32307"/><path d="M331.25,91.58682c0,0 27.73378,-2.33476 40.69968,18.26746c6.88293,10.93667 -2.9682,24.32307 -2.9682,24.32307"/><path d="M347.25,68.58682c0,0 5.73378,-18.33476 18.69968,2.26746c6.88293,10.93667 7.0318,24.32307 7.0318,24.32307"/><path d="M192,52.5l178.25,-29.91318l-236,-1c0,0 41.39415,2.39896 60.07296,32.07872c9.91563,15.75547 15.92704,49.92128 15.92704,49.92128"/><path d="M334,201.5l38,-176l-101,107"/></g><path d="M134.19484,20.23906c0.93844,-0.00382 1.87688,-0.00765 2.84376,-0.01159c3.12259,-0.01026 6.24499,-0.00634 9.36759,-0.00236c2.24784,-0.00435 4.49568,-0.00953 6.74352,-0.01549c6.091,-0.01336 12.18195,-0.01397 18.27297,-0.01144c5.09177,0.00107 10.18351,-0.00382 15.27527,-0.0086c12.70317,-0.01172 25.40629,-0.01087 38.10945,-0.00445c11.01031,0.00517 22.02054,-0.00608 33.03084,-0.0251c11.3276,-0.01941 22.65514,-0.02733 33.98276,-0.02387c6.35065,0.00181 12.70123,-0.0008 19.05187,-0.01472c5.97465,-0.01261 11.94911,-0.01061 17.92375,0.00241c2.18643,0.00236 4.37288,-0.00034 6.5593,-0.00862c18.93601,-0.0665 34.51095,1.48352 48.84788,15.05641c3.13507,3.2327 5.8367,6.53225 8.25781,10.32813c0.56655,0.88365 0.56654,0.88366 1.14453,1.78516c7.22648,12.74784 6.28791,28.10665 6.24365,42.23633c0.00407,2.19607 0.00942,4.39214 0.01593,6.58821c0.0136,5.92766 0.0084,11.85517 -0.00114,17.78283c-0.00764,6.22476 -0.00054,12.4495 0.00416,18.67426c0.00579,11.11824 -0.00349,22.23641 -0.01878,33.35465c-0.0134,10.05373 -0.01108,20.10736 0.00276,30.1611c0.01604,11.71242 0.022,23.42478 0.01316,35.13721c-0.00466,6.18632 -0.00535,12.37257 0.00461,18.55888c0.00871,5.81796 0.00257,11.63572 -0.01468,17.45366c-0.00394,2.12593 -0.00288,4.25188 0.00378,6.3778c0.05694,20.03872 -1.62646,36.4302 -16.04252,51.66727c-15.29196,14.42973 -33.20979,14.5233 -53.03638,14.49731c-2.19563,0.00435 -4.39126,0.00954 -6.58688,0.01549c-5.9402,0.01335 -11.88034,0.01398 -17.82055,0.01144c-4.96989,-0.00108 -9.93978,0.00382 -14.90967,0.00861c-12.40076,0.01171 -24.80148,0.01088 -37.20223,0.00444c-10.74048,-0.00516 -21.48087,0.00608 -32.22133,0.0251c-11.05872,0.01942 -22.1174,0.02733 -33.17615,0.02387c-6.19643,-0.00181 -12.39278,0.00077 -18.5892,0.01472c-5.83022,0.01263 -11.66026,0.01059 -17.49048,-0.00241c-2.13077,-0.00235 -4.26155,0.00033 -6.3923,0.00863c-19.25831,0.06952 -35.99109,-1.07804 -50.60999,-15.00954c-11.15946,-11.42248 -15.47652,-23.9395 -15.46076,-39.74747c-0.00297,-0.93588 -0.00594,-1.87176 -0.00901,-2.83599c-0.00866,-3.13186 -0.01019,-6.26368 -0.01168,-9.39555c-0.00463,-2.24739 -0.00965,-4.49479 -0.01504,-6.74218c-0.01311,-6.10356 -0.01957,-12.20711 -0.02401,-18.31069c-0.00294,-3.81566 -0.00704,-7.63133 -0.0115,-11.44699c-0.01211,-10.57733 -0.02249,-21.15467 -0.02587,-31.73201c-0.00022,-0.67632 -0.00045,-1.35264 -0.00067,-2.04946c-0.00022,-0.67788 -0.00044,-1.35577 -0.00066,-2.05419c-0.00045,-1.37351 -0.00089,-2.74703 -0.00134,-4.12054c-0.00022,-0.6813 -0.00044,-1.36261 -0.00067,-2.06455c-0.00394,-11.02991 -0.02139,-22.05974 -0.04469,-33.08961c-0.02376,-11.34106 -0.03592,-22.68207 -0.03734,-34.02316c-0.00105,-6.36077 -0.00693,-12.72144 -0.02482,-19.08219c-0.01651,-5.9869 -0.01862,-11.97365 -0.00986,-17.96057c0.00077,-2.19127 -0.00355,-4.38256 -0.01346,-6.57381c-0.0779,-18.30208 1.31018,-34.2381 14.39451,-48.30231c11.40688,-10.6404 24.32139,-15.17203 39.70979,-15.10444z" fill="url(#color-4)" stroke="#000000" stroke-width="21.5" stroke-linecap="butt"/></g></g></svg>